<svg xmlns:xlink="http://www.w3.org/1999/xlink" xmlns="http://www.w3.org/2000/svg" class="ecl-icon ecl-icon--m ecl-link__icon ecl-social-media-share__icon" focusable="false" aria-hidden="true" width="24"  height="24" ><defs><symbol viewBox="0 0 48 48" id="email" xmlns="http://www.w3.org/2000/svg"><path d="M0 0h48v48H0z" fill="none"></path><path d="M41.33 12.08H6.67c-.55 0-1 .45-1 1v21.83c0 .55.45 1 1 1h34.66c.55 0 1-.45 1-1V13.08c0-.55-.45-1-1-1m-2.67 2.75-14.67 8.25-14.66-8.25zm.92 17.33c0 .55-.45 1-1 1H9.42c-.55 0-1-.45-1-1v-15.5L24 25.54l15.58-8.88z"></path></symbol></defs>
      <use xlink:href="#email" fill="#0E47CB"></use>
    </svg>